<svg width="216" height="64" viewBox="0 0 216 64" fill="none" xmlns="http://www.w3.org/2000/svg">
<path d="M38.7554 31.6058C38.7531 39.4826 34.3569 44.2705 28.2393 44.2694C26.1551 44.2689 24.3425 43.6418 22.8015 42.6564L22.7987 54.2935L13.7352 54.2913L13.7426 26.7662L11.1602 24.5727L22.8067 20.5469L22.8055 24.9777C25.2081 22.562 28.0183 20.9957 30.6913 20.9963C35.2686 20.9974 38.7565 24.6683 38.7554 31.6058ZM29.0576 34.1548C29.0587 28.1571 27.7456 25.1582 24.7092 25.1576C24.0293 25.1571 23.4399 25.3359 22.8055 25.6042L22.8015 41.896C23.4359 42.3437 24.2514 42.5675 25.0218 42.5681C27.3794 42.5686 29.0564 39.5254 29.0576 34.1548Z" fill="#FF0033" style="fill:#FF0033;fill:color(display-p3 1.0000 0.0000 0.2000);fill-opacity:1;"/>
<path d="M43.3964 43.774L43.4004 26.773L40.8174 24.5795L52.4645 20.5537L52.4588 43.7762L43.3964 43.774ZM42.9039 14.7793C42.9044 11.8249 44.7176 9.81138 47.9344 9.8125C51.1524 9.81306 52.9644 11.8271 52.9633 14.7815C52.9627 17.7804 51.1502 19.7933 47.9322 19.7927C44.7147 19.7922 42.9033 17.7776 42.9039 14.7793Z" fill="#FF0033" style="fill:#FF0033;fill:color(display-p3 1.0000 0.0000 0.2000);fill-opacity:1;"/>
<path d="M59.1481 43.7775L59.1543 16.483L56.5713 14.2895L68.2184 10.2637L68.2104 43.7797L59.1481 43.7775Z" fill="#FF0033" style="fill:#FF0033;fill:color(display-p3 1.0000 0.0000 0.2000);fill-opacity:1;"/>
<path d="M93.0937 39.8094C91.1895 42.6733 88.1531 44.2841 83.9386 44.2829C77.5493 44.2818 72.2938 39.8943 72.2949 32.9568C72.2966 26.4226 76.7401 21.0081 83.9898 21.0098C88.2488 21.0103 91.194 23.4732 91.1929 26.7398C91.1929 30.4551 88.2909 33.7223 82.8526 35.7346C85.4351 38.2414 88.697 39.8983 91.7333 39.8988C92.1871 39.8988 92.6399 39.8544 93.0482 39.765L93.0937 39.8094ZM77.916 25.2156C77.9149 28.9304 79.863 32.6902 82.581 35.4664C83.8503 33.855 84.3486 32.0648 84.3492 29.7819C84.3503 25.8888 81.7234 22.5761 79.7747 22.5756C78.5959 22.5756 77.9166 23.5592 77.916 25.2156Z" fill="#FF0033" style="fill:#FF0033;fill:color(display-p3 1.0000 0.0000 0.2000);fill-opacity:1;"/>
<path d="M113.202 39.7245C111.525 42.3645 108.534 44.2886 104.365 44.2874C98.9721 44.2863 96.8435 41.153 96.8446 35.3342L96.8475 22.6234L93.3584 22.6228V22.5784L105.913 12.8242L105.911 20.8253L112.301 20.827L112.3 22.6273L105.911 22.6256L105.909 33.0541C105.907 38.2459 107.131 40.1705 110.483 40.171C111.48 40.1716 112.25 40.0377 113.157 39.6795L113.202 39.7245Z" fill="#FF0033" style="fill:#FF0033;fill:color(display-p3 1.0000 0.0000 0.2000);fill-opacity:1;"/>
<path d="M116.185 43.7902L116.189 26.7892L113.605 24.5957L125.253 20.5699L125.247 43.7924L116.185 43.7902ZM115.693 14.7949C115.693 11.8405 117.506 9.827 120.724 9.82813C123.941 9.82869 125.753 11.8427 125.752 14.7972C125.752 17.796 123.939 19.8089 120.721 19.8084C117.504 19.8078 115.692 17.7932 115.693 14.7949Z" fill="#FF0033" style="fill:#FF0033;fill:color(display-p3 1.0000 0.0000 0.2000);fill-opacity:1;"/>
<path d="M131.936 43.7951L131.941 16.5005L129.359 14.3065L141.006 10.2812L140.998 43.7973L131.936 43.7951Z" fill="#FF0033" style="fill:#FF0033;fill:color(display-p3 1.0000 0.0000 0.2000);fill-opacity:1;"/>
<path d="M165.745 39.825C163.841 42.6889 160.804 44.2997 156.589 44.2986C150.201 44.2974 144.945 39.91 144.946 32.9724C144.948 26.4382 149.391 21.0237 156.641 21.0254C160.9 21.026 163.845 23.4888 163.844 26.7559C163.844 30.4708 160.942 33.7379 155.504 35.7503C158.086 38.257 161.348 39.9139 164.385 39.9144C164.839 39.915 165.291 39.87 165.7 39.7806L165.745 39.825ZM150.567 25.2318C150.566 28.9466 152.514 32.7064 155.232 35.4825C156.502 33.8712 157 32.081 157.001 29.7981C157.002 25.905 154.375 22.5923 152.426 22.5917C151.247 22.5912 150.568 23.5749 150.567 25.2318Z" fill="#FF0033" style="fill:#FF0033;fill:color(display-p3 1.0000 0.0000 0.2000);fill-opacity:1;"/>
<path d="M192.358 21.93L189.322 24.1224L179.211 44.5288H178.032L168.431 24.1173L165.395 21.9238L181.21 21.9272L178.173 24.1195L182.241 35.1734L187.01 24.1218L183.839 21.9283L192.358 21.93Z" fill="#FF0033" style="fill:#FF0033;fill:color(display-p3 1.0000 0.0000 0.2000);fill-opacity:1;"/>
<path d="M195.633 43.8097L195.636 26.8087L193.054 24.6153L204.701 20.5894L204.695 43.812L195.633 43.8097ZM195.14 14.8144C195.141 11.86 196.953 9.84653 200.17 9.84766C203.388 9.84822 205.201 11.8623 205.2 14.8167C205.198 17.8155 203.385 19.8285 200.168 19.8279C196.951 19.8273 195.14 17.8127 195.14 14.8144Z" fill="#FF0033" style="fill:#FF0033;fill:color(display-p3 1.0000 0.0000 0.2000);fill-opacity:1;"/>
</svg>
