<svg width="82" height="56" viewBox="0 0 82 56" fill="none" xmlns="http://www.w3.org/2000/svg">
<path d="M25.1088 20.3442C25.1088 24.997 22.5767 27.8265 19.0523 27.8265C17.8527 27.8265 16.8092 27.4566 15.9209 26.8739V33.7491H10.7015V17.4883L9.21387 16.1931L15.9209 13.8145V16.4303C17.3044 15.0033 18.9231 14.078 20.4628 14.078C23.099 14.078 25.1088 16.2458 25.1088 20.3442ZM19.5234 21.8512C19.5234 18.3072 18.7661 16.5367 17.0173 16.5367C16.6261 16.5367 16.287 16.6411 15.9209 16.8012V26.4249C16.287 26.6894 16.7562 26.8222 17.2004 26.8222C18.5579 26.8222 19.5234 25.0243 19.5234 21.8512Z" fill="#FF0033" style="fill:#FF0033;fill:color(display-p3 1.0000 0.0000 0.2000);fill-opacity:1;"/>
<path d="M27.7826 32.7075V17.4887L26.2949 16.1926L33.0019 13.813V32.7075H27.7826ZM27.4945 10.4017C27.4945 8.65659 28.538 7.4668 30.3927 7.4668C32.2455 7.4668 33.289 8.65659 33.289 10.4017C33.289 12.1733 32.2455 13.363 30.3927 13.363C28.538 13.363 27.4945 12.1733 27.4945 10.4017Z" fill="#FF0033" style="fill:#FF0033;fill:color(display-p3 1.0000 0.0000 0.2000);fill-opacity:1;"/>
<path d="M36.1849 30.6965V14.5722L34.6963 13.277L41.4042 10.8965V30.6965H36.1849Z" fill="#FF0033" style="fill:#FF0033;fill:color(display-p3 1.0000 0.0000 0.2000);fill-opacity:1;"/>
<path d="M55.197 27.3681C54.1006 29.0615 52.3518 30.0122 49.9247 30.0122C46.2451 30.0122 43.2168 27.4217 43.2168 23.3234C43.2168 19.4631 45.7749 16.2637 49.9498 16.2637C52.4038 16.2637 54.1006 17.7189 54.1006 19.6495C54.1006 21.8427 52.4308 23.7733 49.2984 24.964C50.7861 26.4447 52.6649 27.4227 54.4137 27.4227C54.6739 27.4227 54.9359 27.3963 55.171 27.3436L55.197 27.3681ZM46.4532 18.7487C46.4532 20.9438 47.5766 23.1633 49.1423 24.804C49.8727 23.8505 50.1607 22.7934 50.1607 21.4464C50.1607 19.145 48.6471 17.1899 47.5246 17.1899C46.8444 17.189 46.4532 17.7707 46.4532 18.7487Z" fill="#FF0033" style="fill:#FF0033;fill:color(display-p3 1.0000 0.0000 0.2000);fill-opacity:1;"/>
<path d="M65.7181 24.6057C64.7526 26.1654 63.029 27.3016 60.6279 27.3016C57.5216 27.3016 56.2959 25.4519 56.2959 22.0143V14.5057H54.2852V14.4784L61.5153 8.71484V13.4411H65.1959V14.5057H61.5153V20.6664C61.5153 23.7331 62.2196 24.8693 64.1524 24.8693C64.7257 24.8693 65.1689 24.7902 65.6911 24.5784L65.7181 24.6057Z" fill="#FF0033" style="fill:#FF0033;fill:color(display-p3 1.0000 0.0000 0.2000);fill-opacity:1;"/>
<path d="M67.2806 33.4266V22.4361L65.792 21.1399L72.4999 18.7613V33.4266H67.2806ZM66.9935 15.351C66.9935 13.6058 68.037 12.416 69.8898 12.416C71.7426 12.416 72.787 13.6058 72.787 15.351C72.787 17.1225 71.7426 18.3123 69.8898 18.3123C68.037 18.3123 66.9935 17.1225 66.9935 15.351Z" fill="#FF0033" style="fill:#FF0033;fill:color(display-p3 1.0000 0.0000 0.2000);fill-opacity:1;"/>
<path d="M20.1732 46.8301V32.7851L18.6855 31.4899L25.3935 29.1094V46.8301H20.1732Z" fill="#FF0033" style="fill:#FF0033;fill:color(display-p3 1.0000 0.0000 0.2000);fill-opacity:1;"/>
<path d="M39.946 45.8906C38.8495 47.584 37.1008 48.5356 34.6737 48.5356C30.994 48.5356 27.9648 45.9442 27.9648 41.8468C27.9648 37.9856 30.5239 34.7871 34.6997 34.7871C37.1528 34.7871 38.8495 36.2414 38.8495 38.172C38.8495 40.3661 37.1788 42.2967 34.0465 43.4865C35.5351 44.9662 37.413 45.9442 39.1627 45.9442C39.4238 45.9442 39.6849 45.9188 39.919 45.8652L39.946 45.8906ZM31.2022 37.2721C31.2022 39.4672 32.3247 41.6877 33.8913 43.3284C34.6226 42.3749 34.9097 41.3178 34.9097 39.9699C34.9097 37.6693 33.396 35.7133 32.2736 35.7133C31.5924 35.7124 31.2022 36.2941 31.2022 37.2721Z" fill="#FF0033" style="fill:#FF0033;fill:color(display-p3 1.0000 0.0000 0.2000);fill-opacity:1;"/>
<path d="M54.2661 33.457L52.5183 34.7522L46.6968 46.8102H46.0194L40.486 34.7522L38.7363 33.457H47.8453L46.0975 34.7522L48.4409 41.282L51.1858 34.7522L49.359 33.457H54.2661Z" fill="#FF0033" style="fill:#FF0033;fill:color(display-p3 1.0000 0.0000 0.2000);fill-opacity:1;"/>
<path d="M55.8362 46.8553V38.8657L54.3477 37.5695L61.0556 35.1899V46.8563H55.8362V46.8553ZM55.5491 31.7787C55.5491 30.0335 56.5926 28.8438 58.4464 28.8438C60.2992 28.8438 61.3436 30.0335 61.3436 31.7787C61.3436 33.5502 60.2992 34.74 58.4464 34.74C56.5926 34.74 55.5491 33.5502 55.5491 31.7787Z" fill="#FF0033" style="fill:#FF0033;fill:color(display-p3 1.0000 0.0000 0.2000);fill-opacity:1;"/>
</svg>
